Coordinates
version=1
nRows=9
nColumns=24
inDegrees=yes

Units are S.I. units (second, meters, Newtons, ...)
Angles are in degrees.

endheader
time	pelvis_tilt	pelvis_list	pelvis_rotation	pelvis_tx	pelvis_ty	pelvis_tz	hip_flexion_r	hip_adduction_r	hip_rotation_r	knee_angle_r	ankle_angle_r	subtalar_angle_r	mtp_angle_r	hip_flexion_l	hip_adduction_l	hip_rotation_l	knee_angle_l	ankle_angle_l	subtalar_angle_l	mtp_angle_l	lumbar_extension	lumbar_bending	lumbar_rotation
      1.42116667	      1.88225639	      3.21223494	     -2.34089825	      0.20585311	      1.03019681	      0.32115783	     17.98605274	     -6.46662000	     -6.44499874	    -70.98643047	    -10.64268023	    -12.04841971	      6.38998851	      7.47006642	      9.19605423	      3.77144978	    -12.79192708	      4.59843666	    -12.68477259	      0.99296475	     -5.77716706	     -6.33699209	      4.05408723
      1.42533333	      1.96764406	      3.10153959	     -2.38458805	      0.21059353	      1.03100121	      0.32105315	     18.45796001	     -6.24035875	     -6.18966593	    -70.73654507	    -10.12726899	    -11.94669684	      6.37259385	      6.97286446	      9.08965283	      3.78726071	    -12.58546479	      4.70759232	    -12.64411483	      0.97321727	     -5.96787410	     -6.19337903	      4.03292724
      1.42950000	      2.01301214	      3.00071515	     -2.41993586	      0.21535004	      1.03170872	      0.32094661	     18.96106162	     -6.02387683	     -5.94817550	    -70.44137767	     -9.67624742	    -11.90077256	      6.35543495	      6.51581415	      8.99273068	      3.81247325	    -12.37224619	      4.82813952	    -12.60898278	      0.95342209	     -6.07236281	     -6.07064836	      4.00091171
      1.43366667	      2.08957610	      2.89333319	     -2.43575731	      0.22011456	      1.03245919	      0.32081514	     19.40422070	     -5.80802590	     -5.73236977	    -70.08556575	     -9.22780255	    -11.78077500	      6.32638721	      6.01536934	      8.89286037	      3.86507635	    -12.14183251	      4.95270085	    -12.55312151	      0.92074929	     -6.20988761	     -5.93833117	      3.95261063
      1.43783333	      2.13613250	      2.79764927	     -2.43849482	      0.22485023	      1.03311194	      0.32066706	     19.87089065	     -5.60425919	     -5.52487413	    -69.69359551	     -8.77516199	    -11.66951710	      6.30105341	      5.55997804	      8.80556031	      3.91746320	    -11.93233579	      5.06839070	    -12.51867622	      0.88620678	     -6.32066394	     -5.81623630	      3.89456776
      1.44200000	      2.18029584	      2.68711666	     -2.42115972	      0.22957184	      1.03374794	      0.32050831	     20.31562101	     -5.38524566	     -5.34272799	    -69.24155487	     -8.32180228	    -11.56524216	      6.28682417	      5.11498730	      8.70234637	      3.98281439	    -11.74218821	      5.18149580	    -12.49161631	      0.85841067	     -6.43493926	     -5.68128786	      3.83551014
      1.44616667	      2.23779685	      2.58500958	     -2.38909614	      0.23430075	      1.03438164	      0.32031734	     20.72648296	     -5.18375602	     -5.17351654	    -68.74199681	     -7.85073830	    -11.39255197	      6.27238019	      4.64639810	      8.61146385	      4.07118867	    -11.53056987	      5.29458214	    -12.46097653	      0.82288020	     -6.56240074	     -5.55345901	      3.75137741
      1.45033333	      2.28697016	      2.48491855	     -2.34221105	      0.23901541	      1.03496370	      0.32011591	     21.12862921	     -4.98606192	     -5.01843485	    -68.19460910	     -7.36918184	    -11.23289545	      6.26460698	      4.19421842	      8.52249365	      4.16879616	    -11.33355706	      5.40373085	    -12.43877770	      0.78982655	     -6.67875935	     -5.42923578	      3.66316825
      1.45450000	      2.33636603	      2.38325450	     -2.27517584	      0.24372242	      1.03551627	      0.31988602	     21.51015067	     -4.79487584	     -4.88599123	    -67.59885082	     -6.87344305	    -11.03836842	      6.25989786	      3.74215685	      8.43311413	      4.28972438	    -11.13675205	      5.51432771	    -12.41928655	      0.75284994	     -6.79752710	     -5.30163169	      3.55201917
